<svg width="249" height="26" viewBox="0 0 249 26" fill="none" xmlns="http://www.w3.org/2000/svg">
<path d="M6.162 20.142C5.97133 20.142 5.80667 20.0727 5.668 19.934C5.52933 19.7953 5.46 19.6307 5.46 19.44V15.254H1.43C1.23933 15.254 1.07467 15.1847 0.936 15.046C0.797333 14.9073 0.728 14.7427 0.728 14.552V11.718C0.728 11.5273 0.797333 11.3627 0.936 11.224C1.07467 11.0853 1.23933 11.016 1.43 11.016H5.46V6.96C5.46 6.76933 5.52933 6.60467 5.668 6.466C5.80667 6.32733 5.97133 6.258 6.162 6.258H9.334C9.52467 6.258 9.68933 6.32733 9.828 6.466C9.96667 6.60467 10.036 6.76933 10.036 6.96V11.016H14.014C14.2047 11.016 14.3693 11.0853 14.508 11.224C14.6467 11.3627 14.716 11.5273 14.716 11.718V14.552C14.716 14.7427 14.6467 14.9073 14.508 15.046C14.3693 15.1847 14.2047 15.254 14.014 15.254H10.036V19.44C10.036 19.6307 9.96667 19.7953 9.828 19.934C9.68933 20.0727 9.52467 20.142 9.334 20.142H6.162ZM17.8297 21C17.6737 21 17.535 20.948 17.4137 20.844C17.3097 20.7227 17.2577 20.584 17.2577 20.428C17.2577 20.3413 17.275 20.2633 17.3097 20.194L22.9257 8.13H15.7757C15.585 8.13 15.4204 8.06067 15.2817 7.922C15.143 7.78333 15.0737 7.61867 15.0737 7.428V3.502C15.0737 3.31133 15.143 3.14667 15.2817 3.008C15.4204 2.86933 15.585 2.8 15.7757 2.8H29.2177C29.4257 2.8 29.5904 2.86933 29.7117 3.008C29.8504 3.14667 29.9197 3.31133 29.9197 3.502V6.934C29.9197 7.194 29.885 7.41933 29.8157 7.61C29.7637 7.80067 29.6857 8.01733 29.5817 8.26L23.9137 20.402C23.6884 20.8007 23.333 21 22.8477 21H17.8297ZM40.3197 25.134C37.6157 25.134 35.4404 24.146 33.7937 22.17C32.1644 20.2113 31.3497 17.1433 31.3497 12.966C31.3497 8.78867 32.1644 5.72067 33.7937 3.762C35.4404 1.80333 37.6157 0.823999 40.3197 0.823999C40.5104 0.823999 40.675 0.893333 40.8137 1.032C40.9524 1.17067 41.0217 1.33533 41.0217 1.526V4.828C41.0217 5.01867 40.9524 5.18333 40.8137 5.322C40.675 5.44333 40.5104 5.51267 40.3197 5.53C39.0197 5.65133 38.1097 6.388 37.5897 7.74C37.087 9.07467 36.8357 10.8167 36.8357 12.966C36.8357 15.1153 37.087 16.866 37.5897 18.218C38.1097 19.57 39.0197 20.3067 40.3197 20.428C40.5104 20.4453 40.675 20.5233 40.8137 20.662C40.9524 20.7833 41.0217 20.9393 41.0217 21.13V24.432C41.0217 24.6227 40.9524 24.7873 40.8137 24.926C40.675 25.0647 40.5104 25.134 40.3197 25.134ZM45.0738 21C44.9178 21 44.7792 20.948 44.6578 20.844C44.5538 20.7227 44.5018 20.584 44.5018 20.428C44.5018 20.3413 44.5192 20.2633 44.5538 20.194L50.1698 8.13H43.0198C42.8292 8.13 42.6645 8.06067 42.5258 7.922C42.3872 7.78333 42.3178 7.61867 42.3178 7.428V3.502C42.3178 3.31133 42.3872 3.14667 42.5258 3.008C42.6645 2.86933 42.8292 2.8 43.0198 2.8H56.4618C56.6698 2.8 56.8345 2.86933 56.9558 3.008C57.0945 3.14667 57.1638 3.31133 57.1638 3.502V6.934C57.1638 7.194 57.1292 7.41933 57.0598 7.61C57.0078 7.80067 56.9298 8.01733 56.8258 8.26L51.1578 20.402C50.9325 20.8007 50.5772 21 50.0918 21H45.0738ZM67.1478 21.26C64.6345 21.2427 62.6845 20.6273 61.2978 19.414C59.9112 18.2007 59.1398 16.5973 58.9838 14.604C58.9318 13.8933 58.9058 12.9833 58.9058 11.874C58.9058 10.7473 58.9318 9.82 58.9838 9.092C59.0705 7.80933 59.4432 6.68267 60.1018 5.712C60.7778 4.724 61.7138 3.95267 62.9098 3.398C64.1232 2.826 65.5358 2.54 67.1478 2.54C68.7598 2.54 70.1638 2.826 71.3598 3.398C72.5732 3.95267 73.5092 4.724 74.1678 5.712C74.8438 6.68267 75.2252 7.80933 75.3118 9.092C75.3638 9.82 75.3898 10.7473 75.3898 11.874C75.3898 12.9833 75.3638 13.8933 75.3118 14.604C75.1558 16.5973 74.3845 18.2007 72.9978 19.414C71.6112 20.6273 69.6612 21.2427 67.1478 21.26ZM67.1478 16.164C68.0145 16.164 68.4825 15.6007 68.5518 14.474C68.5865 13.9713 68.6038 13.096 68.6038 11.848C68.6038 10.5827 68.5865 9.716 68.5518 9.248C68.4825 8.13867 68.0145 7.57533 67.1478 7.558C66.2812 7.57533 65.8132 8.13867 65.7438 9.248C65.7092 10.184 65.6918 11.0507 65.6918 11.848C65.6918 12.5933 65.7092 13.4687 65.7438 14.474C65.8132 15.6007 66.2812 16.164 67.1478 16.164ZM85.446 21.312C83.678 21.312 82.17 21.052 80.922 20.532C79.674 20.012 78.7293 19.31 78.088 18.426C77.464 17.542 77.1346 16.5627 77.1 15.488C77.1 15.332 77.152 15.202 77.256 15.098C77.3773 14.9767 77.516 14.916 77.672 14.916H82.924C83.3226 14.916 83.6346 15.0547 83.86 15.332C84.12 15.6787 84.354 15.9213 84.562 16.06C84.77 16.1813 85.0733 16.242 85.472 16.242C85.9226 16.242 86.2953 16.1033 86.59 15.826C86.902 15.5313 87.058 15.1327 87.058 14.63C87.058 14.1967 86.9106 13.824 86.616 13.512C86.3386 13.2 85.9573 13.044 85.472 13.044C85.1773 13.044 84.9433 13.0787 84.77 13.148C84.5966 13.2173 84.4233 13.3213 84.25 13.46C84.0766 13.5987 83.9293 13.668 83.808 13.668H78.634C78.478 13.668 78.3393 13.616 78.218 13.512C78.114 13.3907 78.062 13.252 78.062 13.096L79.102 3.684C79.1366 3.38933 79.2493 3.17267 79.44 3.034C79.6306 2.878 79.856 2.8 80.116 2.8H91.738C91.9286 2.8 92.0933 2.86933 92.232 3.008C92.3706 3.14667 92.44 3.31133 92.44 3.502V7.168C92.44 7.35867 92.3706 7.52333 92.232 7.662C92.0933 7.80067 91.9286 7.87 91.738 7.87H84.146L83.938 9.716C84.4233 9.38667 84.9086 9.16133 85.394 9.04C85.8966 8.90133 86.5726 8.832 87.422 8.832C88.4966 8.832 89.5193 9.092 90.49 9.612C91.4606 10.132 92.2493 10.8513 92.856 11.77C93.4626 12.6887 93.766 13.7027 93.766 14.812C93.766 15.9907 93.4453 17.074 92.804 18.062C92.18 19.05 91.2353 19.8387 89.97 20.428C88.722 21.0173 87.214 21.312 85.446 21.312ZM95.7271 25.134C95.5365 25.134 95.3718 25.0647 95.2331 24.926C95.0945 24.7873 95.0251 24.6227 95.0251 24.432V21.13C95.0251 20.9393 95.0945 20.7833 95.2331 20.662C95.3718 20.5233 95.5365 20.4453 95.7271 20.428C97.0271 20.3067 97.9285 19.57 98.4311 18.218C98.9511 16.866 99.2111 15.1153 99.2111 12.966C99.2111 10.8167 98.9511 9.07467 98.4311 7.74C97.9285 6.388 97.0271 5.65133 95.7271 5.53C95.5365 5.51267 95.3718 5.44333 95.2331 5.322C95.0945 5.18333 95.0251 5.01867 95.0251 4.828V1.526C95.0251 1.33533 95.0945 1.17067 95.2331 1.032C95.3718 0.893333 95.5365 0.823999 95.7271 0.823999C98.4311 0.823999 100.598 1.80333 102.227 3.762C103.874 5.72067 104.697 8.78867 104.697 12.966C104.697 17.1433 103.874 20.2113 102.227 22.17C100.598 24.146 98.4311 25.134 95.7271 25.134ZM119.501 21.26C117.577 21.26 115.991 20.9827 114.743 20.428C113.513 19.8733 112.611 19.154 112.039 18.27C111.485 17.3687 111.207 16.3893 111.207 15.332C111.207 14.5 111.415 13.7287 111.831 13.018C112.247 12.3073 112.793 11.7613 113.469 11.38C112.395 10.6 111.857 9.47333 111.857 8C111.857 7.012 112.109 6.11067 112.611 5.296C113.114 4.464 113.937 3.79667 115.081 3.294C116.225 2.79133 117.699 2.54 119.501 2.54C122.119 2.54 124.034 3.06 125.247 4.1C126.461 5.12267 127.067 6.40533 127.067 7.948C127.067 9.43867 126.556 10.5827 125.533 11.38C126.244 11.7267 126.807 12.264 127.223 12.992C127.639 13.72 127.847 14.5173 127.847 15.384C127.847 16.424 127.561 17.3947 126.989 18.296C126.417 19.18 125.507 19.8993 124.259 20.454C123.011 20.9913 121.425 21.26 119.501 21.26ZM119.501 9.742C120.004 9.742 120.403 9.612 120.697 9.352C121.009 9.07467 121.165 8.73667 121.165 8.338C121.165 7.93933 121.009 7.61 120.697 7.35C120.403 7.07267 120.004 6.934 119.501 6.934C118.999 6.934 118.6 7.07267 118.305 7.35C118.011 7.61 117.863 7.93933 117.863 8.338C117.863 8.73667 118.011 9.07467 118.305 9.352C118.6 9.612 118.999 9.742 119.501 9.742ZM119.501 16.892C120.039 16.892 120.472 16.7533 120.801 16.476C121.148 16.1987 121.321 15.826 121.321 15.358C121.321 14.89 121.148 14.5173 120.801 14.24C120.472 13.9627 120.039 13.824 119.501 13.824C118.964 13.824 118.522 13.9627 118.175 14.24C117.846 14.5173 117.681 14.89 117.681 15.358C117.681 15.826 117.846 16.1987 118.175 16.476C118.522 16.7533 118.964 16.892 119.501 16.892ZM138.089 21.26C135.576 21.2427 133.626 20.6273 132.239 19.414C130.853 18.2007 130.081 16.5973 129.925 14.604C129.873 13.8933 129.847 12.9833 129.847 11.874C129.847 10.7473 129.873 9.82 129.925 9.092C130.012 7.80933 130.385 6.68267 131.043 5.712C131.719 4.724 132.655 3.95267 133.851 3.398C135.065 2.826 136.477 2.54 138.089 2.54C139.701 2.54 141.105 2.826 142.301 3.398C143.515 3.95267 144.451 4.724 145.109 5.712C145.785 6.68267 146.167 7.80933 146.253 9.092C146.305 9.82 146.331 10.7473 146.331 11.874C146.331 12.9833 146.305 13.8933 146.253 14.604C146.097 16.5973 145.326 18.2007 143.939 19.414C142.553 20.6273 140.603 21.2427 138.089 21.26ZM138.089 16.164C138.956 16.164 139.424 15.6007 139.493 14.474C139.528 13.9713 139.545 13.096 139.545 11.848C139.545 10.5827 139.528 9.716 139.493 9.248C139.424 8.13867 138.956 7.57533 138.089 7.558C137.223 7.57533 136.755 8.13867 136.685 9.248C136.651 10.184 136.633 11.0507 136.633 11.848C136.633 12.5933 136.651 13.4687 136.685 14.474C136.755 15.6007 137.223 16.164 138.089 16.164ZM151.551 21C151.395 21 151.257 20.948 151.135 20.844C151.031 20.7227 150.979 20.584 150.979 20.428C150.979 20.3067 151.014 20.194 151.083 20.09L154.489 15.54C154.403 15.54 154.333 15.5313 154.281 15.514C153.345 15.41 152.392 15.1153 151.421 14.63C150.451 14.1447 149.636 13.46 148.977 12.576C148.319 11.6747 147.989 10.5913 147.989 9.326C147.989 8.11267 148.301 6.99467 148.925 5.972C149.567 4.932 150.503 4.1 151.733 3.476C152.981 2.852 154.472 2.54 156.205 2.54C157.973 2.54 159.49 2.81733 160.755 3.372C162.038 3.90933 163.009 4.672 163.667 5.66C164.326 6.63067 164.655 7.766 164.655 9.066C164.655 10.0367 164.439 10.938 164.005 11.77C163.572 12.602 162.905 13.6247 162.003 14.838L161.223 15.904L157.791 20.48C157.549 20.8267 157.211 21 156.777 21H151.551ZM156.283 10.99C156.803 10.99 157.211 10.8427 157.505 10.548C157.8 10.2533 157.947 9.83733 157.947 9.3C157.947 8.76267 157.791 8.34667 157.479 8.052C157.185 7.75733 156.786 7.61 156.283 7.61C155.781 7.61 155.373 7.75733 155.061 8.052C154.767 8.34667 154.619 8.76267 154.619 9.3C154.619 9.83733 154.767 10.2533 155.061 10.548C155.356 10.8427 155.763 10.99 156.283 10.99ZM179.324 21.26C176.81 21.2427 174.86 20.6273 173.474 19.414C172.087 18.2007 171.316 16.5973 171.16 14.604C171.108 13.8933 171.082 12.9833 171.082 11.874C171.082 10.7473 171.108 9.82 171.16 9.092C171.246 7.80933 171.619 6.68267 172.278 5.712C172.954 4.724 173.89 3.95267 175.086 3.398C176.299 2.826 177.712 2.54 179.324 2.54C180.936 2.54 182.34 2.826 183.536 3.398C184.749 3.95267 185.685 4.724 186.344 5.712C187.02 6.68267 187.401 7.80933 187.488 9.092C187.54 9.82 187.566 10.7473 187.566 11.874C187.566 12.9833 187.54 13.8933 187.488 14.604C187.332 16.5973 186.56 18.2007 185.174 19.414C183.787 20.6273 181.837 21.2427 179.324 21.26ZM179.324 16.164C180.19 16.164 180.658 15.6007 180.728 14.474C180.762 13.9713 180.78 13.096 180.78 11.848C180.78 10.5827 180.762 9.716 180.728 9.248C180.658 8.13867 180.19 7.57533 179.324 7.558C178.457 7.57533 177.989 8.13867 177.92 9.248C177.885 10.184 177.868 11.0507 177.868 11.848C177.868 12.5933 177.885 13.4687 177.92 14.474C177.989 15.6007 178.457 16.164 179.324 16.164ZM197.726 21.26C195.784 21.26 194.181 20.974 192.916 20.402C191.668 19.8127 190.758 19.102 190.186 18.27C189.614 17.438 189.31 16.632 189.276 15.852C189.276 15.696 189.328 15.566 189.432 15.462C189.553 15.3407 189.692 15.28 189.848 15.28H195.074C195.282 15.28 195.446 15.3147 195.568 15.384C195.689 15.4533 195.819 15.5573 195.958 15.696C196.131 15.8693 196.348 15.9993 196.608 16.086C196.868 16.1727 197.249 16.216 197.752 16.216C198.324 16.216 198.748 16.086 199.026 15.826C199.32 15.566 199.468 15.2367 199.468 14.838C199.468 14.0753 198.896 13.694 197.752 13.694H194.502C194.311 13.694 194.146 13.6247 194.008 13.486C193.869 13.3473 193.8 13.1827 193.8 12.992V10.886C193.8 10.6433 193.852 10.4353 193.956 10.262C194.06 10.0713 194.181 9.93267 194.32 9.846L197.934 7.87H191.096C190.905 7.87 190.74 7.80067 190.602 7.662C190.463 7.52333 190.394 7.35867 190.394 7.168V3.502C190.394 3.31133 190.463 3.14667 190.602 3.008C190.74 2.86933 190.905 2.8 191.096 2.8H204.408C204.598 2.8 204.763 2.86933 204.902 3.008C205.04 3.14667 205.11 3.31133 205.11 3.502V6.804C205.11 7.02933 205.058 7.23733 204.954 7.428C204.85 7.60133 204.728 7.74 204.59 7.844L201.548 9.872V9.95C204.668 10.6953 206.228 12.4807 206.228 15.306C206.228 16.4847 205.864 17.5247 205.136 18.426C204.408 19.3273 203.394 20.0293 202.094 20.532C200.811 21.0173 199.355 21.26 197.726 21.26ZM221.79 21C221.599 21 221.434 20.9307 221.296 20.792C221.157 20.6533 221.088 20.4887 221.088 20.298V18.088H213.314C213.123 18.088 212.958 18.0187 212.82 17.88C212.681 17.7413 212.612 17.5767 212.612 17.386V13.668C212.612 13.3733 212.707 13.1047 212.898 12.862L220.256 3.242C220.498 2.94733 220.819 2.8 221.218 2.8H226.626C226.816 2.8 226.981 2.86933 227.12 3.008C227.258 3.14667 227.328 3.31133 227.328 3.502V12.81H229.59C229.798 12.81 229.971 12.8793 230.11 13.018C230.248 13.1567 230.318 13.3213 230.318 13.512V17.386C230.318 17.5767 230.248 17.7413 230.11 17.88C229.971 18.0187 229.806 18.088 229.616 18.088H227.328V20.298C227.328 20.4887 227.258 20.6533 227.12 20.792C226.981 20.9307 226.816 21 226.626 21H221.79ZM218.54 13.096H221.27V9.352L218.54 13.096ZM240.285 21.26C238.361 21.26 236.775 20.9827 235.527 20.428C234.296 19.8733 233.395 19.154 232.823 18.27C232.268 17.3687 231.991 16.3893 231.991 15.332C231.991 14.5 232.199 13.7287 232.615 13.018C233.031 12.3073 233.577 11.7613 234.253 11.38C233.178 10.6 232.641 9.47333 232.641 8C232.641 7.012 232.892 6.11067 233.395 5.296C233.897 4.464 234.721 3.79667 235.865 3.294C237.009 2.79133 238.482 2.54 240.285 2.54C242.902 2.54 244.817 3.06 246.031 4.1C247.244 5.12267 247.851 6.40533 247.851 7.948C247.851 9.43867 247.339 10.5827 246.317 11.38C247.027 11.7267 247.591 12.264 248.007 12.992C248.423 13.72 248.631 14.5173 248.631 15.384C248.631 16.424 248.345 17.3947 247.773 18.296C247.201 19.18 246.291 19.8993 245.043 20.454C243.795 20.9913 242.209 21.26 240.285 21.26ZM240.285 9.742C240.787 9.742 241.186 9.612 241.481 9.352C241.793 9.07467 241.949 8.73667 241.949 8.338C241.949 7.93933 241.793 7.61 241.481 7.35C241.186 7.07267 240.787 6.934 240.285 6.934C239.782 6.934 239.383 7.07267 239.089 7.35C238.794 7.61 238.647 7.93933 238.647 8.338C238.647 8.73667 238.794 9.07467 239.089 9.352C239.383 9.612 239.782 9.742 240.285 9.742ZM240.285 16.892C240.822 16.892 241.255 16.7533 241.585 16.476C241.931 16.1987 242.105 15.826 242.105 15.358C242.105 14.89 241.931 14.5173 241.585 14.24C241.255 13.9627 240.822 13.824 240.285 13.824C239.747 13.824 239.305 13.9627 238.959 14.24C238.629 14.5173 238.465 14.89 238.465 15.358C238.465 15.826 238.629 16.1987 238.959 16.476C239.305 16.7533 239.747 16.892 240.285 16.892Z" fill="url(#paint0_linear)"/>
<defs>
<linearGradient id="paint0_linear" x1="256.383" y1="2.00002" x2="0.0580441" y2="13.3148" gradientUnits="userSpaceOnUse">
<stop stop-color="#B2DB34"/>
<stop offset="1" stop-color="#28A352"/>
</linearGradient>
</defs>
</svg>
