<svg width="49" height="71" viewBox="0 0 49 71" fill="none" xmlns="http://www.w3.org/2000/svg">
<path d="M48.2005 67.6504L25.0149 70.811L18.6127 23.8453C16.5319 24.8691 15.0141 25.5806 14.0593 25.9799C13.1706 26.3702 11.8239 26.8565 10.0194 27.4389C8.20583 27.9553 5.79328 28.5196 2.78173 29.132L0.83677 14.864C4.68003 13.9364 8.07744 12.6995 11.029 11.1533C11.8997 10.6309 12.7375 10.113 13.5422 9.59964C14.4129 9.07725 15.123 8.61039 15.6725 8.19907C16.222 7.78775 16.8285 7.30137 17.4921 6.73993C18.2217 6.16949 18.7382 5.76267 19.0415 5.51948C19.3357 5.21024 19.8101 4.74187 20.4647 4.11437C21.1103 3.42082 21.5232 2.99448 21.7033 2.83536L39.043 0.471695L48.2005 67.6504Z" fill="#B2DB34" fill-opacity="0.31"/>
</svg>
