<svg width="77" height="74" viewBox="0 0 77 74" fill="none" xmlns="http://www.w3.org/2000/svg">
<path d="M70.7872 73.8505L0.759274 64.1254C1.91474 55.8052 4.30376 49.5073 7.92634 45.2316C12.0552 40.2186 20.7494 35.7723 34.0091 31.8927L45.2814 28.5111C49.8487 27.1262 52.3203 25.08 52.6963 22.3727C53.2465 18.4107 49.8898 15.9253 42.6262 14.9166C38.136 14.293 34.9416 14.758 33.0432 16.3117C31.2108 17.8745 30.0039 20.2645 29.4225 23.4818C16.9221 21.4092 10.0776 20.2904 8.88899 20.1254C10.1545 11.0128 13.8651 5.13403 20.0208 2.48897C26.1765 -0.156089 35.1973 -0.653286 47.0832 0.99738C68.4779 3.96858 78.2765 11.9254 76.4791 24.8679C75.7455 30.1505 72.5613 34.4197 66.9266 37.6756C63.3516 39.6695 57.6463 41.7377 49.8104 43.8802C43.7262 45.5256 38.8481 46.9682 35.1759 48.2082C31.4377 49.4391 29.2037 50.7442 28.4736 52.1235C30.605 52.2849 35.4676 52.8929 43.0614 53.9475L72.9743 58.1017L70.7872 73.8505Z" fill="#B2DB34" fill-opacity="0.31"/>
</svg>
