<svg width="83" height="76" viewBox="0 0 83 76" fill="none" xmlns="http://www.w3.org/2000/svg">
<path d="M29.1466 46.6345L26.1111 34.0967L39.3292 30.8965C46.8454 29.0767 50.0701 25.9638 49.0034 21.5578C47.9366 17.1518 43.8719 15.8037 36.8093 17.5136C28.3212 19.5687 23.7211 22.8088 23.0091 27.234L0.493295 31.5535C0.427795 27.3166 1.08459 23.7965 2.46368 20.9933C6.2572 13.147 16.3181 7.24721 32.6463 3.29396C35.8213 2.52527 38.6231 1.9155 41.0519 1.46466C43.5455 0.998117 46.3296 0.598419 49.4043 0.265561C52.5438 -0.082981 55.2924 -0.0625332 57.6503 0.326904C59.9924 0.651544 62.2677 1.26674 64.4762 2.17249C66.7338 2.99776 68.6074 4.36185 70.097 6.26476C71.5866 8.16767 72.6687 10.5122 73.3433 13.2984C75.1317 20.685 71.0373 26.5806 61.0603 30.9854C72.9546 29.6833 79.9293 33.2763 81.9843 41.7644C83.757 49.0862 81.8026 55.3211 76.1212 60.4693C70.5536 65.5212 61.2904 69.616 48.3315 72.7535C39.8434 74.8085 32.9311 75.8647 27.5948 75.9221C22.2584 75.9794 17.6901 74.9591 13.8897 72.8611C9.15486 70.3034 5.69173 66.3404 3.50027 60.972L25.1332 54.7056C28.0414 59.3517 34.4848 60.4668 44.4631 58.0509C49.8411 56.7488 53.4433 55.0536 55.2699 52.9651C56.786 51.2948 57.2618 49.2933 56.697 46.9607C55.6303 42.5547 51.4684 41.2301 44.2114 42.9871L29.1466 46.6345Z" fill="#B2DB34" fill-opacity="0.31"/>
</svg>
