<svg width="77" height="75" viewBox="0 0 77 75" fill="none" xmlns="http://www.w3.org/2000/svg">
<path d="M0.537326 9.18493L67.3197 0.0814446L68.0261 15.6285L20.9613 22.0442L21.4473 32.2723C28.4673 28.4894 35.5113 26.1163 42.5793 25.1528C55.0638 23.4509 64.3941 25.5096 70.57 31.3288C73.8035 34.3194 75.731 38.0937 76.3523 42.6515C76.9105 46.747 76.3144 50.7643 74.5637 54.7036C73.5878 56.9224 72.3161 58.946 70.7487 60.7745C69.1813 62.6029 67.3797 64.1942 65.344 65.5482C63.3653 66.8272 61.298 67.95 59.1421 68.9167C57.0523 69.8744 54.7418 70.694 52.2107 71.3755C49.6795 72.0569 47.3616 72.5747 45.2568 72.9289C43.161 73.3492 40.825 73.7349 38.2489 74.0861C36.7296 74.2932 35.1352 74.4432 33.4658 74.5362C31.8625 74.6202 29.6136 74.6577 26.7192 74.6485C23.8338 74.7054 21.106 74.4381 18.5359 73.8465C15.9567 73.1888 13.3506 72.3329 10.7174 71.2789C8.14133 70.1499 5.89402 68.4714 3.97552 66.2434C2.12307 64.0064 0.820107 61.3582 0.0666196 58.2986L23.7386 54.2643C24.5072 56.4472 26.4828 57.8599 29.6654 58.5026C32.9141 59.1363 35.9917 59.255 38.8981 58.8589C42.5973 58.3546 45.825 57.1072 48.5814 55.1167C51.4039 53.1171 52.581 50.3999 52.1128 46.965C51.7976 44.6531 50.6162 42.8965 48.5685 41.6954C46.5209 40.4943 44.4462 39.8352 42.3444 39.718C40.2427 39.6008 38.0688 39.6953 35.8229 40.0014C30.2082 40.7668 26.0241 42.6492 23.2707 45.6485C10.4769 47.0561 3.5185 47.8365 2.39556 47.9895L0.537326 9.18493Z" fill="#B2DB34" fill-opacity="0.31"/>
</svg>
