<svg width="81" height="73" viewBox="0 0 81 73" fill="none" xmlns="http://www.w3.org/2000/svg">
<path d="M74.8137 15.0205L49.7815 19.442C46.9413 16.8687 43.0771 15.9153 38.189 16.5816C33.3008 17.2479 29.6437 19.294 27.2175 22.7197C25.8092 24.7283 24.9384 26.731 24.605 28.7276C24.3287 30.6492 24.273 33.4491 24.438 37.1272C29.5155 30.4468 37.3388 26.3863 47.9077 24.9456C55.6362 23.892 62.1622 24.3818 67.4855 26.4147C74.9527 29.3665 79.231 34.8388 80.3205 42.8316C81.3921 50.6922 78.8381 57.1295 72.6587 62.1434C66.4793 67.1573 57.9069 70.4116 46.9417 71.9064C19.7267 75.6162 4.55246 65.9774 1.41891 42.99C0.248336 34.4027 1.36263 26.7824 4.76179 20.129C9.92659 10.1399 21.0302 3.98373 38.0726 1.66059C47.5185 0.372953 55.4917 0.867242 61.992 3.14345C65.0966 4.20049 67.7537 5.92406 69.9635 8.31417C72.2303 10.6292 73.847 12.8647 74.8137 15.0205ZM28.4547 50.3054C29.2561 56.1844 34.578 58.453 44.4203 57.1113C48.78 56.5171 52.0122 55.3027 54.1171 53.4683C56.2129 51.5678 57.0718 49.2303 56.6936 46.456C55.9192 40.7752 50.842 38.5741 41.4621 39.8527C37.4988 40.393 34.2245 41.5458 31.6392 43.3112C29.12 45.0675 28.0585 47.3989 28.4547 50.3054Z" fill="#B2DB34" fill-opacity="0.31"/>
</svg>
