<svg width="75" height="77" viewBox="0 0 75 77" fill="none" xmlns="http://www.w3.org/2000/svg">
<path d="M0.389319 10.5998L74.4048 0.510356L74.7647 8.33343C74.9237 11.4741 74.766 14.0187 74.2915 15.9673C73.8741 17.8409 72.8651 20.0642 71.2646 22.6373C70.4929 23.8863 69.7077 25.0362 68.909 26.087C68.1763 27.1289 67.0834 28.489 65.6301 30.1673C64.1768 31.8456 63.2459 32.9145 62.8376 33.3738C62.4382 33.8993 61.5689 34.9261 60.2297 36.4543C58.9476 37.9075 58.0168 38.9763 57.4373 39.6609C56.9238 40.3364 56.1206 41.3542 55.0276 42.7143C53.9256 44.0083 53.0323 45.1057 52.3477 46.0064C51.7291 46.8982 51.001 47.973 50.1632 49.231C49.3825 50.414 48.6633 51.5549 48.0057 52.6538C46.156 55.8664 44.8918 58.9319 44.2131 61.8503C43.5254 64.7027 42.9307 68.4843 42.4291 73.1953L15.8747 76.815C15.8568 73.7224 16.1767 70.1465 16.8345 66.0871C18.213 58.4307 21.0357 51.9905 25.3025 46.7663C27.9629 43.5778 31.6441 39.9809 36.3463 35.9758C40.622 32.2979 43.476 29.7894 44.9083 28.4504C46.5778 26.8771 47.6377 25.5216 48.0881 24.3836C48.5956 23.1706 48.8449 21.791 48.836 20.2447L2.56389 26.5523L0.389319 10.5998Z" fill="#B2DB34" fill-opacity="0.31"/>
</svg>
