<svg width="80" height="72" viewBox="0 0 80 72" fill="none" xmlns="http://www.w3.org/2000/svg">
<path d="M16.6958 37.5012C15.1314 37.3781 13.6197 37.1468 12.1605 36.8074C10.7673 36.4591 9.21055 35.8975 7.49015 35.1228C5.8358 34.3391 4.40065 33.1891 3.1847 31.6727C2.03481 30.1474 1.3158 28.3278 1.02765 26.214C0.460374 22.0525 1.30425 18.3715 3.55929 15.1709C5.80533 11.9043 8.98962 9.35079 13.1122 7.51044C17.3008 5.66109 21.1801 4.2576 24.7501 3.29997C28.3862 2.33333 32.1859 1.57987 36.1493 1.03961C39.0557 0.643411 41.9517 0.416857 44.8371 0.359945C47.7135 0.236978 50.8331 0.417276 54.1959 0.90084C57.5497 1.31835 60.5101 2.05861 63.0772 3.12162C65.6353 4.11858 67.8736 5.73103 69.7921 7.95899C71.7016 10.1209 72.868 12.7542 73.2912 15.8588C73.7234 19.0295 72.8886 22.0364 70.7867 24.8797C68.6848 27.723 65.46 29.9792 61.1122 31.6484C72.0354 32.3125 78.0597 36.773 79.1853 45.03C81.0672 58.8356 69.0282 67.5078 43.0683 71.0466C36.0664 72.0011 29.9412 72.2305 24.6928 71.7348C19.4445 71.2391 15.3266 70.152 12.3391 68.4735C9.35172 66.7949 7.10593 64.8807 5.60177 62.7309C4.09761 60.581 3.16094 58.1519 2.79176 55.4436C2.65669 54.4528 2.56816 53.5565 2.52616 52.7549C2.55022 51.9442 2.76495 50.8047 3.17036 49.3365C3.56676 47.8023 4.22138 46.4346 5.1342 45.2337C6.04702 44.0327 7.48379 42.7267 9.44449 41.3156C11.3962 39.8385 13.8133 38.567 16.6958 37.5012ZM49.3759 20.3299C49.0428 17.8858 47.7232 16.35 45.4173 15.7223C43.1024 15.0287 39.8312 14.97 35.6036 15.5462C32.499 15.9694 29.8628 16.8671 27.6949 18.2391C25.584 19.5361 24.6952 21.4066 25.0284 23.8507C25.3615 26.2948 26.5865 27.8771 28.7032 28.5978C30.811 29.2525 33.9786 29.2917 38.2062 28.7154C46.265 27.6169 49.9882 24.8217 49.3759 20.3299ZM54.4955 46.7808C54.1803 44.4688 52.9989 42.7123 50.9513 41.5112C48.9036 40.3101 45.2045 40.0742 39.854 40.8036C30.6062 42.0642 26.3335 45.2707 27.0358 50.4231C27.7472 55.6415 32.3965 57.6654 40.9837 56.4948C50.6939 55.1711 55.1978 51.9331 54.4955 46.7808Z" fill="#B2DB34" fill-opacity="0.31"/>
</svg>
