<svg width="167" height="85" viewBox="0 0 167 85" fill="none" xmlns="http://www.w3.org/2000/svg">
<path d="M4.82779 77.7266C4.81488 78.0024 5.02804 78.2365 5.30388 78.2494L9.79896 78.4597C10.0748 78.4726 10.3089 78.2595 10.3218 77.9836C10.3347 77.7078 10.1215 77.4737 9.8457 77.4608L5.85007 77.2739L6.03702 73.2782C6.04993 73.0024 5.83678 72.7683 5.56094 72.7554C5.28509 72.7425 5.05103 72.9556 5.03812 73.2315L4.82779 77.7266ZM162.962 8.40812C162.188 9.23425 161.398 10.0371 160.592 10.8177L161.288 11.536C162.106 10.7442 162.907 9.92986 163.692 9.09177L162.962 8.40812ZM157.021 14.0491C155.301 15.5044 153.519 16.8746 151.68 18.168L152.256 18.9859C154.117 17.6762 155.923 16.2879 157.667 14.8127L157.021 14.0491ZM147.655 20.8261C145.75 22.007 143.793 23.1181 141.788 24.1675L142.252 25.0535C144.277 23.9936 146.255 22.8706 148.182 21.676L147.655 20.8261ZM137.459 26.3071C135.43 27.2538 133.359 28.1469 131.25 28.9941L131.623 29.922C133.747 29.0686 135.835 28.1683 137.881 27.2132L137.459 26.3071ZM126.733 30.7207C124.627 31.4874 122.488 32.2156 120.319 32.9126L120.625 33.8647C122.804 33.1642 124.956 32.4319 127.075 31.6604L126.733 30.7207ZM115.695 34.3417C113.542 34.982 111.365 35.5974 109.166 36.1946L109.429 37.1596C111.633 36.5607 113.818 35.9431 115.98 35.3002L115.695 34.3417ZM104.482 37.4344C102.304 37.9969 100.109 38.5465 97.9 39.0894L98.1387 40.0605C100.35 39.5169 102.549 38.9664 104.732 38.4026L104.482 37.4344ZM93.1847 40.236C90.9925 40.7645 88.7908 41.2907 86.5809 41.8209L86.8143 42.7933C89.0228 42.2634 91.2263 41.7368 93.4191 41.2081L93.1847 40.236ZM81.8606 42.9595C79.6643 43.4931 77.4633 44.0348 75.2614 44.5903L75.5061 45.5599C77.7043 45.0053 79.9022 44.4644 82.0967 43.9312L81.8606 42.9595ZM70.556 45.8006C68.3654 46.376 66.176 46.9693 63.9914 47.5863L64.2632 48.5487C66.4411 47.9336 68.6244 47.3419 70.8101 46.7678L70.556 45.8006ZM59.3237 48.9453C57.1512 49.5979 54.9858 50.2783 52.8308 50.9921L53.1452 51.9414C55.2905 51.2308 57.447 50.5532 59.6115 49.903L59.3237 48.9453ZM48.2309 52.575C46.0933 53.3394 43.9684 54.1414 41.8598 54.9868L42.2319 55.9149C44.328 55.0746 46.441 54.277 48.5676 53.5166L48.2309 52.575ZM37.3694 56.8658C35.2894 57.7744 33.2279 58.7304 31.1883 59.7394L31.6317 60.6357C33.6563 59.6341 35.7034 58.6848 37.7697 57.7822L37.3694 56.8658ZM26.8633 61.9789C24.8704 63.059 22.9015 64.1954 20.9598 65.3938L21.485 66.2448C23.41 65.0566 25.3627 63.9296 27.3398 62.8581L26.8633 61.9789ZM16.8689 68.0405C14.9976 69.3094 13.155 70.6422 11.3444 72.0442L11.9566 72.8349C13.7502 71.4461 15.5757 70.1257 17.4301 68.8682L16.8689 68.0405ZM7.56123 75.1165C6.696 75.8533 5.83901 76.6077 4.99061 77.3803L5.66389 78.1196C6.50404 77.3546 7.35272 76.6075 8.20958 75.8778L7.56123 75.1165ZM4.32834 77.7032C4.30253 78.2549 4.72883 78.723 5.2805 78.7489L14.2707 79.1695C14.8224 79.1953 15.2905 78.769 15.3163 78.2173C15.3421 77.6656 14.9158 77.1975 14.3642 77.1717L6.3729 76.7978L6.7468 68.8065C6.77261 68.2548 6.3463 67.7867 5.79462 67.7609C5.24294 67.7351 4.77479 68.1614 4.74897 68.713L4.32834 77.7032ZM162.597 8.0663C161.829 8.88645 161.045 9.68353 160.245 10.4586L161.636 11.8951C162.459 11.0978 163.266 10.2777 164.057 9.43359L162.597 8.0663ZM156.699 13.6673C154.99 15.1126 153.22 16.4738 151.393 17.7591L152.544 19.3948C154.417 18.0769 156.234 16.6797 157.99 15.1944L156.699 13.6673ZM147.392 20.4011C145.498 21.5752 143.551 22.6803 141.556 23.7245L142.484 25.4965C144.519 24.4313 146.508 23.3023 148.446 22.101L147.392 20.4011ZM137.247 25.854C135.228 26.7965 133.165 27.686 131.064 28.5301L131.809 30.386C133.942 29.5295 136.038 28.6256 138.093 27.6663L137.247 25.854ZM126.562 30.2509C124.463 31.0151 122.329 31.7413 120.166 32.4366L120.778 34.3407C122.963 33.6385 125.12 32.9041 127.246 32.1302L126.562 30.2509ZM115.552 33.8624C113.404 34.5015 111.23 35.1158 109.035 35.7121L109.56 37.6422C111.767 37.0423 113.956 36.4237 116.122 35.7794L115.552 33.8624ZM104.357 36.9503C102.181 37.5122 99.988 38.0612 97.7806 38.6038L98.258 40.546C100.471 40.0021 102.672 39.4511 104.857 38.8867L104.357 36.9503ZM93.0675 39.7499C90.8757 40.2784 88.6747 40.8043 86.4643 41.3348L86.931 43.2795C89.1389 42.7497 91.3431 42.223 93.5363 41.6942L93.0675 39.7499ZM81.7426 42.4736C79.5453 43.0075 77.3429 43.5495 75.1391 44.1055L75.6284 46.0447C77.8247 45.4906 80.0212 44.95 82.2148 44.4171L81.7426 42.4736ZM70.429 45.317C68.2359 45.8931 66.0435 46.4872 63.8555 47.1051L64.3991 49.0299C66.5736 48.4157 68.754 47.8248 70.9371 47.2514L70.429 45.317ZM59.1799 48.4664C57.0034 49.1202 54.8334 49.802 52.6736 50.5175L53.3025 52.4161C55.4428 51.707 57.5948 51.0309 59.7553 50.3818L59.1799 48.4664ZM48.0626 52.1042C45.9194 52.8705 43.7887 53.6748 41.6737 54.5227L42.4179 56.379C44.5077 55.5412 46.6148 54.7459 48.736 53.9874L48.0626 52.1042ZM37.1693 56.4076C35.0824 57.3192 33.0137 58.2785 30.9666 59.2912L31.8534 61.0838C33.8705 60.086 35.9104 59.14 37.9699 58.2404L37.1693 56.4076ZM26.6251 61.5393C24.6243 62.6236 22.6472 63.7648 20.6972 64.9683L21.7476 66.6703C23.6643 65.4873 25.6088 64.3649 27.578 63.2977L26.6251 61.5393ZM16.5883 67.6267C14.7086 68.9013 12.8575 70.2402 11.0382 71.6489L12.2627 73.2303C14.0477 71.8481 15.8647 70.5338 17.7108 69.282L16.5883 67.6267ZM7.23704 74.7358C6.36764 75.4762 5.5065 76.2342 4.65396 77.0106L6.00053 78.4893C6.83655 77.728 7.68107 76.9846 8.53377 76.2585L7.23704 74.7358Z" fill="#FFB800"/>
</svg>
