<svg width="412" height="386" viewBox="0 0 412 386" fill="none" xmlns="http://www.w3.org/2000/svg">
<path fill-rule="evenodd" clip-rule="evenodd" d="M208.826 4.60995C253.163 6.43822 300.896 2.92937 336.23 29.7732C371.279 56.4005 381.244 102.844 393.7 145.062C405.802 186.078 419.648 228.671 406.965 269.512C394.199 310.621 362.381 343.594 325.273 365.409C290.44 385.887 249.233 385.912 208.826 385.995C168.331 386.078 127.492 385.444 92.0315 365.889C53.2444 344.499 13.9166 314.973 2.4535 272.187C-8.85072 229.995 21.9105 190.289 33.7175 148.234C46.2132 103.727 37.8105 48.2578 73.5535 18.9414C109.492 -10.5356 162.385 2.69489 208.826 4.60995Z" fill="#747474" fill-opacity="0.04"/>
</svg>
