<svg width="236" height="32" viewBox="0 0 236 32" fill="none" xmlns="http://www.w3.org/2000/svg">
<path d="M10.464 24.32C8.672 24.32 7.008 24.0107 5.472 23.392C3.936 22.7733 2.69867 21.8773 1.76 20.704C0.821333 19.5093 0.341333 18.1013 0.32 16.48C0.32 16.288 0.384 16.128 0.512 16C0.661333 15.8507 0.832 15.776 1.024 15.776H7.552C7.89333 15.776 8.14933 15.8613 8.32 16.032C8.512 16.1813 8.69333 16.4373 8.864 16.8C9.07733 17.2693 9.312 17.6 9.568 17.792C9.84533 17.984 10.2293 18.08 10.72 18.08C11.3387 18.08 11.808 17.888 12.128 17.504C12.448 17.0987 12.608 16.4267 12.608 15.488V8.096H3.104C2.86933 8.096 2.66667 8.01067 2.496 7.84C2.32533 7.66933 2.24 7.46667 2.24 7.232V2.464C2.24 2.22933 2.32533 2.02667 2.496 1.856C2.66667 1.68533 2.86933 1.6 3.104 1.6H20.032C20.2667 1.6 20.4693 1.68533 20.64 1.856C20.8107 2.02667 20.896 2.22933 20.896 2.464V15.744C20.896 17.6427 20.4373 19.2427 19.52 20.544C18.624 21.824 17.3867 22.7733 15.808 23.392C14.2507 24.0107 12.4693 24.32 10.464 24.32ZM29.9568 24.32C28.8261 24.32 27.7914 24.064 26.8528 23.552C25.9141 23.0187 25.1568 22.208 24.5807 21.12C24.0261 20.032 23.7488 18.6773 23.7488 17.056V8.224C23.7488 7.98933 23.8341 7.78667 24.0048 7.616C24.1754 7.44533 24.3781 7.36 24.6128 7.36H30.7248C30.9594 7.36 31.1621 7.44533 31.3328 7.616C31.5034 7.78667 31.5888 7.98933 31.5888 8.224V16.832C31.5888 17.408 31.7274 17.8453 32.0048 18.144C32.2821 18.4427 32.6768 18.592 33.1888 18.592C33.7008 18.592 34.0954 18.4427 34.3728 18.144C34.6501 17.8453 34.7888 17.408 34.7888 16.832V8.224C34.7888 7.98933 34.8741 7.78667 35.0448 7.616C35.2154 7.44533 35.4181 7.36 35.6528 7.36H41.7328C41.9674 7.36 42.1701 7.44533 42.3408 7.616C42.5114 7.78667 42.5968 7.98933 42.5968 8.224V23.136C42.5968 23.3707 42.5114 23.5733 42.3408 23.744C42.1701 23.9147 41.9674 24 41.7328 24H36.1328C35.8981 24 35.6954 23.9147 35.5248 23.744C35.3541 23.5733 35.2688 23.3707 35.2688 23.136V22.08C34.7568 22.8267 34.0421 23.392 33.1248 23.776C32.2074 24.1387 31.1514 24.32 29.9568 24.32ZM46.3353 24C46.1006 24 45.8979 23.9147 45.7273 23.744C45.5566 23.5733 45.4713 23.3707 45.4713 23.136V2.144C45.4713 1.90933 45.5566 1.70667 45.7273 1.536C45.8979 1.36533 46.1006 1.28 46.3353 1.28H52.0633C52.2979 1.28 52.5006 1.36533 52.6713 1.536C52.8419 1.70667 52.9273 1.90933 52.9273 2.144V23.136C52.9273 23.3707 52.8419 23.5733 52.6713 23.744C52.5006 23.9147 52.2979 24 52.0633 24H46.3353ZM56.839 5.6C56.6043 5.6 56.4017 5.51467 56.231 5.344C56.0603 5.17333 55.975 4.97067 55.975 4.736V0.863998C55.975 0.629332 56.0603 0.426666 56.231 0.255999C56.4017 0.0853316 56.6043 -1.90735e-06 56.839 -1.90735e-06H62.247C62.4817 -1.90735e-06 62.6843 0.0853316 62.855 0.255999C63.0257 0.426666 63.111 0.629332 63.111 0.863998V4.736C63.111 4.97067 63.0257 5.17333 62.855 5.344C62.6843 5.51467 62.4817 5.6 62.247 5.6H56.839ZM56.679 24C56.4443 24 56.2417 23.9147 56.071 23.744C55.9003 23.5733 55.815 23.3707 55.815 23.136V8.224C55.815 7.98933 55.9003 7.78667 56.071 7.616C56.2417 7.44533 56.4443 7.36 56.679 7.36H62.407C62.6417 7.36 62.8443 7.44533 63.015 7.616C63.1857 7.78667 63.271 7.98933 63.271 8.224V23.136C63.271 23.3707 63.1857 23.5733 63.015 23.744C62.8443 23.9147 62.6417 24 62.407 24H56.679ZM71.4708 24.32C70.2761 24.32 69.1988 24.096 68.2388 23.648C67.3001 23.2 66.5641 22.592 66.0308 21.824C65.5188 21.056 65.2628 20.192 65.2628 19.232C65.2628 16.352 67.5988 14.5067 72.2708 13.696L75.6628 13.152V13.12C75.6628 12.5013 75.6094 12.0853 75.5028 11.872C75.3961 11.6373 75.1294 11.52 74.7028 11.52C74.4681 11.52 74.2654 11.5627 74.0948 11.648C73.9241 11.7333 73.7428 11.8613 73.5508 12.032C73.3588 12.2027 73.1881 12.3307 73.0388 12.416C72.9108 12.5013 72.7294 12.544 72.4948 12.544H72.3988H67.0548C66.8628 12.544 66.6921 12.4907 66.5428 12.384C66.4148 12.256 66.3508 12.096 66.3508 11.904C66.3508 11.2853 66.6494 10.592 67.2468 9.824C67.8654 9.056 68.8041 8.40533 70.0628 7.872C71.3428 7.31733 72.9108 7.04 74.7668 7.04C77.6254 7.04 79.7694 7.63733 81.1988 8.832C82.6281 10.0267 83.3428 11.7333 83.3428 13.952V23.136C83.3428 23.3707 83.2574 23.5733 83.0868 23.744C82.9161 23.9147 82.7134 24 82.4788 24H76.8788C76.6441 24 76.4414 23.9147 76.2708 23.744C76.1001 23.5733 76.0148 23.3707 76.0148 23.136V22.24C75.5454 22.88 74.9161 23.392 74.1267 23.776C73.3374 24.1387 72.4521 24.32 71.4708 24.32ZM73.6788 19.584C74.3188 19.584 74.8201 19.3813 75.1828 18.976C75.5668 18.5707 75.7588 17.952 75.7588 17.12V17.088L73.8708 17.504C72.9321 17.7173 72.4628 18.112 72.4628 18.688C72.4628 18.944 72.5694 19.1573 72.7828 19.328C72.9961 19.4987 73.2948 19.584 73.6788 19.584ZM93.1865 24C92.9518 24 92.7492 23.9147 92.5785 23.744C92.4078 23.5733 92.3225 23.3707 92.3225 23.136V2.464C92.3225 2.22933 92.4078 2.02667 92.5785 1.856C92.7492 1.68533 92.9518 1.6 93.1865 1.6H102.659C105.731 1.6 108.131 2.29333 109.859 3.68C111.587 5.04533 112.451 6.944 112.451 9.376C112.451 10.7627 112.141 11.9893 111.523 13.056C110.904 14.1013 110.061 14.9653 108.995 15.648L112.931 22.944C112.995 23.072 113.027 23.1893 113.027 23.296C113.027 23.488 112.952 23.6587 112.803 23.808C112.675 23.936 112.515 24 112.323 24H105.763C105.379 24 105.069 23.9147 104.835 23.744C104.621 23.552 104.472 23.3493 104.387 23.136L101.635 17.024H100.323V23.136C100.323 23.3707 100.237 23.5733 100.067 23.744C99.8958 23.9147 99.6932 24 99.4585 24H93.1865ZM102.659 10.944C103.128 10.944 103.491 10.7947 103.747 10.496C104.003 10.176 104.131 9.78133 104.131 9.312C104.131 8.84267 104.003 8.43733 103.747 8.096C103.512 7.73333 103.149 7.552 102.659 7.552H100.323V10.944H102.659ZM121.144 24.32C120.014 24.32 118.979 24.064 118.04 23.552C117.102 23.0187 116.344 22.208 115.768 21.12C115.214 20.032 114.936 18.6773 114.936 17.056V8.224C114.936 7.98933 115.022 7.78667 115.192 7.616C115.363 7.44533 115.566 7.36 115.8 7.36H121.912C122.147 7.36 122.35 7.44533 122.52 7.616C122.691 7.78667 122.776 7.98933 122.776 8.224V16.832C122.776 17.408 122.915 17.8453 123.192 18.144C123.47 18.4427 123.864 18.592 124.376 18.592C124.888 18.592 125.283 18.4427 125.56 18.144C125.838 17.8453 125.976 17.408 125.976 16.832V8.224C125.976 7.98933 126.062 7.78667 126.232 7.616C126.403 7.44533 126.606 7.36 126.84 7.36H132.92C133.155 7.36 133.358 7.44533 133.528 7.616C133.699 7.78667 133.784 7.98933 133.784 8.224V23.136C133.784 23.3707 133.699 23.5733 133.528 23.744C133.358 23.9147 133.155 24 132.92 24H127.32C127.086 24 126.883 23.9147 126.712 23.744C126.542 23.5733 126.456 23.3707 126.456 23.136V22.08C125.944 22.8267 125.23 23.392 124.312 23.776C123.395 24.1387 122.339 24.32 121.144 24.32ZM143.027 24.32C141.043 24.32 139.443 23.7227 138.227 22.528C137.011 21.3333 136.349 19.4667 136.243 16.928L136.211 15.648L136.243 14.4C136.328 11.9893 136.989 10.1653 138.227 8.928C139.485 7.66933 141.085 7.04 143.027 7.04C144.755 7.04 146.173 7.54133 147.283 8.544V2.144C147.283 1.90933 147.368 1.70667 147.539 1.536C147.709 1.36533 147.912 1.28 148.147 1.28H154.067C154.301 1.28 154.504 1.36533 154.675 1.536C154.845 1.70667 154.931 1.90933 154.931 2.144V23.136C154.931 23.3707 154.845 23.5733 154.675 23.744C154.504 23.9147 154.301 24 154.067 24H148.627C148.392 24 148.189 23.9147 148.019 23.744C147.848 23.5733 147.763 23.3707 147.763 23.136V22.4C146.632 23.68 145.053 24.32 143.027 24.32ZM145.683 18.592C146.237 18.592 146.632 18.4427 146.867 18.144C147.101 17.824 147.24 17.3547 147.283 16.736C147.325 16.096 147.347 15.7013 147.347 15.552C147.347 15.4027 147.325 15.008 147.283 14.368C147.24 13.8347 147.091 13.44 146.835 13.184C146.6 12.9067 146.216 12.768 145.683 12.768C145.128 12.768 144.733 12.9173 144.499 13.216C144.285 13.5147 144.147 13.984 144.083 14.624C144.061 14.8373 144.051 15.1893 144.051 15.68C144.051 16.1707 144.061 16.5227 144.083 16.736C144.147 17.376 144.285 17.8453 144.499 18.144C144.733 18.4427 145.128 18.592 145.683 18.592ZM161.111 30.08C160.919 30.08 160.748 30.016 160.599 29.888C160.471 29.76 160.407 29.6 160.407 29.408C160.407 29.3867 160.396 29.344 160.375 29.28C160.375 29.216 160.396 29.152 160.439 29.088L162.999 22.944L156.823 8.352C156.802 8.288 156.791 8.21333 156.791 8.128C156.834 7.91467 156.93 7.73333 157.079 7.584C157.228 7.43467 157.399 7.36 157.591 7.36H162.999C163.49 7.36 163.831 7.616 164.023 8.128L166.647 15.424L169.367 8.128C169.58 7.616 169.943 7.36 170.455 7.36H175.799C175.991 7.36 176.162 7.43467 176.311 7.584C176.46 7.712 176.535 7.86133 176.535 8.032C176.535 8.16 176.524 8.26667 176.503 8.352L167.479 29.312C167.266 29.824 166.892 30.08 166.359 30.08H161.111ZM182.658 24.32C181.464 24.32 180.386 24.096 179.426 23.648C178.488 23.2 177.752 22.592 177.218 21.824C176.706 21.056 176.45 20.192 176.45 19.232C176.45 16.352 178.786 14.5067 183.458 13.696L186.85 13.152V13.12C186.85 12.5013 186.797 12.0853 186.69 11.872C186.584 11.6373 186.317 11.52 185.89 11.52C185.656 11.52 185.453 11.5627 185.282 11.648C185.112 11.7333 184.93 11.8613 184.738 12.032C184.546 12.2027 184.376 12.3307 184.226 12.416C184.098 12.5013 183.917 12.544 183.682 12.544H183.586H178.242C178.05 12.544 177.88 12.4907 177.73 12.384C177.602 12.256 177.538 12.096 177.538 11.904C177.538 11.2853 177.837 10.592 178.434 9.824C179.053 9.056 179.992 8.40533 181.25 7.872C182.53 7.31733 184.098 7.04 185.954 7.04C188.813 7.04 190.957 7.63733 192.386 8.832C193.816 10.0267 194.53 11.7333 194.53 13.952V23.136C194.53 23.3707 194.445 23.5733 194.274 23.744C194.104 23.9147 193.901 24 193.666 24H188.066C187.832 24 187.629 23.9147 187.458 23.744C187.288 23.5733 187.202 23.3707 187.202 23.136V22.24C186.733 22.88 186.104 23.392 185.314 23.776C184.525 24.1387 183.64 24.32 182.658 24.32ZM184.866 19.584C185.506 19.584 186.008 19.3813 186.37 18.976C186.754 18.5707 186.946 17.952 186.946 17.12V17.088L185.058 17.504C184.12 17.7173 183.65 18.112 183.65 18.688C183.65 18.944 183.757 19.1573 183.97 19.328C184.184 19.4987 184.482 19.584 184.866 19.584ZM206.629 31.04C204.41 31.04 202.586 30.6773 201.157 29.952C199.749 29.248 198.725 28.4373 198.085 27.52C197.445 26.6027 197.125 25.8453 197.125 25.248C197.125 25.0347 197.21 24.8427 197.381 24.672C197.551 24.5227 197.754 24.448 197.989 24.448H204.229C204.463 24.448 204.645 24.5013 204.773 24.608C204.901 24.7147 205.018 24.8747 205.125 25.088C205.274 25.3867 205.445 25.5893 205.637 25.696C205.829 25.824 206.106 25.888 206.469 25.888C207.386 25.888 207.845 25.2587 207.845 24V21.888C206.799 22.8053 205.381 23.264 203.589 23.264C201.477 23.264 199.855 22.7093 198.725 21.6C197.594 20.4693 196.954 18.6133 196.805 16.032L196.773 15.2C196.773 12.4693 197.359 10.432 198.533 9.088C199.727 7.72267 201.413 7.04 203.589 7.04C204.591 7.04 205.498 7.24267 206.309 7.648C207.119 8.032 207.791 8.55467 208.325 9.216V8.224C208.325 7.98933 208.41 7.78667 208.581 7.616C208.751 7.44533 208.954 7.36 209.189 7.36H214.789C215.023 7.36 215.226 7.44533 215.397 7.616C215.567 7.78667 215.653 7.98933 215.653 8.224L215.685 23.456C215.685 26.016 214.853 27.9147 213.189 29.152C211.525 30.4107 209.338 31.04 206.629 31.04ZM206.245 17.696C206.778 17.696 207.162 17.568 207.397 17.312C207.653 17.0347 207.802 16.6293 207.845 16.096C207.866 15.9893 207.877 15.7013 207.877 15.232C207.877 14.3787 207.759 13.76 207.525 13.376C207.311 12.9707 206.885 12.768 206.245 12.768C205.69 12.768 205.295 12.928 205.061 13.248C204.826 13.5467 204.687 14.0053 204.645 14.624L204.613 15.232C204.613 16.064 204.719 16.6827 204.933 17.088C205.167 17.4933 205.605 17.696 206.245 17.696ZM223.877 24.32C222.682 24.32 221.605 24.096 220.645 23.648C219.706 23.2 218.97 22.592 218.437 21.824C217.925 21.056 217.669 20.192 217.669 19.232C217.669 16.352 220.005 14.5067 224.677 13.696L228.069 13.152V13.12C228.069 12.5013 228.016 12.0853 227.909 11.872C227.802 11.6373 227.536 11.52 227.109 11.52C226.874 11.52 226.672 11.5627 226.501 11.648C226.33 11.7333 226.149 11.8613 225.957 12.032C225.765 12.2027 225.594 12.3307 225.445 12.416C225.317 12.5013 225.136 12.544 224.901 12.544H224.805H219.461C219.269 12.544 219.098 12.4907 218.949 12.384C218.821 12.256 218.757 12.096 218.757 11.904C218.757 11.2853 219.056 10.592 219.653 9.824C220.272 9.056 221.21 8.40533 222.469 7.872C223.749 7.31733 225.317 7.04 227.173 7.04C230.032 7.04 232.176 7.63733 233.605 8.832C235.034 10.0267 235.749 11.7333 235.749 13.952V23.136C235.749 23.3707 235.664 23.5733 235.493 23.744C235.322 23.9147 235.12 24 234.885 24H229.285C229.05 24 228.848 23.9147 228.677 23.744C228.506 23.5733 228.421 23.3707 228.421 23.136V22.24C227.952 22.88 227.322 23.392 226.533 23.776C225.744 24.1387 224.858 24.32 223.877 24.32ZM226.085 19.584C226.725 19.584 227.226 19.3813 227.589 18.976C227.973 18.5707 228.165 17.952 228.165 17.12V17.088L226.277 17.504C225.338 17.7173 224.869 18.112 224.869 18.688C224.869 18.944 224.976 19.1573 225.189 19.328C225.402 19.4987 225.701 19.584 226.085 19.584Z" fill="url(#paint0_linear)"/>
<defs>
<linearGradient id="paint0_linear" x1="251.091" y1="14.077" x2="-0.262385" y2="24.915" gradientUnits="userSpaceOnUse">
<stop stop-color="#B2DB34"/>
<stop offset="1" stop-color="#28A352"/>
</linearGradient>
</defs>
</svg>
