<svg width="324" height="293" viewBox="0 0 324 293" fill="none" xmlns="http://www.w3.org/2000/svg">
<path d="M272 261C272 268.792 265.896 275 258.5 275C251.104 275 245 268.792 245 261C245 253.208 251.104 247 258.5 247C265.896 247 272 253.208 272 261Z" stroke="#FFB800" stroke-width="4"/>
<path d="M12 54.3202C12 57.49 9.6337 59.8202 7 59.8202C4.3663 59.8202 2 57.49 2 54.3202C2 51.1504 4.3663 48.8202 7 48.8202C9.6337 48.8202 12 51.1504 12 54.3202Z" fill="#FFB800" stroke="#FFB800" stroke-width="4"/>
<line x1="273.417" y1="74.8297" x2="293.913" y2="54.3338" stroke="#FFB800" stroke-width="4"/>
<line x1="275.086" y1="54.3338" x2="295.582" y2="74.8297" stroke="#FFB800" stroke-width="4"/>
<path fill-rule="evenodd" clip-rule="evenodd" d="M152.683 3.79537C182.289 2.27149 215.847 -2.90381 238.556 16.1749C261.034 35.059 256.203 69.9487 264.842 98.0244C273.294 125.492 298.94 151.915 288.569 178.716C278.168 205.594 242.095 209.185 216.627 222.627C195.554 233.75 176.29 247.242 152.683 250.438C126.153 254.029 97.6147 255.86 74.8091 241.823C51.2245 227.305 33.5691 202.006 29.4671 174.594C25.6114 148.827 46.6798 127.409 53.9444 102.39C61.5664 76.1415 53.6616 44.0004 72.9933 24.6968C92.9235 4.79547 124.571 5.24231 152.683 3.79537Z" stroke="#F2AC33" stroke-width="3" stroke-dasharray="7 5"/>
<path fill-rule="evenodd" clip-rule="evenodd" d="M185.683 43.7954C215.289 42.2715 248.847 37.0962 271.556 56.1749C294.034 75.059 289.203 109.949 297.842 138.024C306.294 165.492 331.94 191.915 321.569 218.716C311.168 245.594 275.095 249.185 249.627 262.627C228.554 273.75 209.29 287.242 185.683 290.438C159.153 294.029 130.615 295.86 107.809 281.823C84.2245 267.305 66.5691 242.006 62.4671 214.594C58.6114 188.827 79.6798 167.409 86.9444 142.39C94.5664 116.142 86.6616 84.0005 105.993 64.6968C125.923 44.7955 157.571 45.2423 185.683 43.7954Z" fill="#F2AC33" fill-opacity="0.15"/>
<path fill-rule="evenodd" clip-rule="evenodd" d="M169.683 16.7954C199.289 15.2715 232.847 10.0962 255.556 29.1749C278.034 48.059 273.203 82.9487 281.842 111.024C290.294 138.492 315.94 164.915 305.569 191.716C295.168 218.594 259.095 222.185 233.627 235.627C212.554 246.75 193.29 260.242 169.683 263.438C143.153 267.029 114.615 268.86 91.8091 254.823C68.2245 240.305 50.5691 215.006 46.4671 187.594C42.6114 161.827 63.6798 140.409 70.9444 115.39C78.5664 89.1415 70.6616 57.0005 89.9933 37.6968C109.923 17.7955 141.571 18.2423 169.683 16.7954Z" fill="url(#paint0_linear)"/>
<defs>
<linearGradient id="paint0_linear" x1="89.5" y1="233.68" x2="288.5" y2="34.6797" gradientUnits="userSpaceOnUse">
<stop stop-color="#F2AC33"/>
<stop offset="1" stop-color="#C9372F"/>
</linearGradient>
</defs>
</svg>
