<svg width="409" height="392" viewBox="0 0 409 392" fill="none" xmlns="http://www.w3.org/2000/svg">
<circle cx="276" cy="331.476" r="14" stroke="#B2DB34" stroke-width="4"/>
<circle cx="274.5" cy="50.5" r="5.5" fill="#B2DB34" stroke="#B2DB34" stroke-width="4"/>
<line x1="65.8548" y1="283.161" x2="86.8106" y2="262.205" stroke="#B2DB34" stroke-width="4"/>
<line x1="67.4978" y1="262.205" x2="88.4536" y2="283.161" stroke="#B2DB34" stroke-width="4"/>
<path fill-rule="evenodd" clip-rule="evenodd" d="M105.612 130.84C122.502 105.554 148.369 87.2154 177.429 78.3082C205.245 69.7822 234.268 75.5162 262.425 82.7747C290.939 90.1248 326.773 93.9248 340.029 120.223C353.406 146.764 326.841 176.215 324.466 205.858C322.549 229.77 338.85 254.822 327.545 275.985C316.026 297.548 288.686 302.879 266.812 313.782C242.014 326.143 218.825 348.24 191.492 343.804C163.58 339.275 145.953 312.73 127.63 291.196C108.753 269.012 88.2286 246.664 84.2641 217.791C80.1039 187.493 88.6181 156.283 105.612 130.84Z" stroke="#B2DB34" stroke-width="3" stroke-dasharray="7 5"/>
<path fill-rule="evenodd" clip-rule="evenodd" d="M74.7381 119.757C91.6273 94.4709 117.495 76.1324 146.555 67.2251C174.371 58.6992 203.393 64.4332 231.551 71.6917C260.064 79.0418 295.899 82.8418 309.154 109.14C322.532 135.681 295.967 165.132 293.591 194.775C291.675 218.687 307.976 243.739 296.671 264.902C285.151 286.465 257.812 291.796 235.938 302.699C211.14 315.06 187.951 337.157 160.617 332.721C132.706 328.192 115.079 301.647 96.7561 280.113C77.879 257.929 57.3542 235.581 53.3897 206.708C49.2295 176.41 57.7437 145.2 74.7381 119.757Z" fill="#B2DB34" fill-opacity="0.21"/>
<path fill-rule="evenodd" clip-rule="evenodd" d="M91.5924 132.617C108.482 107.331 134.349 88.9923 163.409 80.085C191.225 71.5591 220.248 77.2931 248.405 84.5515C276.919 91.9017 312.753 95.7017 326.009 122C339.386 148.541 312.821 177.992 310.446 207.635C308.529 231.546 324.83 256.599 313.525 277.762C302.006 299.325 274.666 304.656 252.792 315.559C227.994 327.92 204.805 350.017 177.471 345.581C149.56 341.052 131.933 314.506 113.61 292.973C94.7334 270.789 74.2085 248.441 70.2441 219.568C66.0839 189.269 74.5981 158.06 91.5924 132.617Z" fill="url(#paint0_linear)"/>
<defs>
<linearGradient id="paint0_linear" x1="110" y1="290.656" x2="347.5" y2="124.156" gradientUnits="userSpaceOnUse">
<stop stop-color="#B2DB34"/>
<stop offset="1" stop-color="#FFB800"/>
</linearGradient>
</defs>
</svg>
