<svg width="112" height="98" viewBox="0 0 112 98" fill="none" xmlns="http://www.w3.org/2000/svg">
<path fill-rule="evenodd" clip-rule="evenodd" d="M49.7654 7.98379C59.8298 8.47058 70.3244 5.30564 79.1763 10.1275C88.6134 15.268 97.1581 24.0789 98.827 34.7087C100.44 44.9854 90.3078 52.9414 87.4693 62.9483C84.4513 73.5882 90.3211 87.805 81.7782 94.8134C73.312 101.759 60.6012 95.413 49.7654 93.8802C40.6134 92.5856 31.1179 92.1368 23.7104 86.5993C16.3585 81.1034 13.2783 72.1558 9.50217 63.7813C5.19728 54.2343 -1.34902 44.9126 0.244853 34.5593C1.94842 23.4934 8.36322 12.4665 18.216 7.17898C27.7216 2.07777 38.9942 7.46281 49.7654 7.98379Z" fill="url(#paint0_linear)"/>
<path fill-rule="evenodd" clip-rule="evenodd" d="M62.7654 2.98379C72.8298 3.47058 83.3244 0.305641 92.1763 5.12748C101.613 10.268 110.158 19.0789 111.827 29.7087C113.44 39.9854 103.308 47.9414 100.469 57.9483C97.4513 68.5882 103.321 82.805 94.7782 89.8134C86.312 96.759 73.6012 90.413 62.7654 88.8802C53.6134 87.5856 44.1179 87.1368 36.7104 81.5993C29.3585 76.1034 26.2783 67.1558 22.5022 58.7813C18.1973 49.2343 11.651 39.9126 13.2449 29.5593C14.9484 18.4934 21.3632 7.46652 31.216 2.17898C40.7216 -2.92223 51.9942 2.46281 62.7654 2.98379Z" fill="url(#paint1_linear)" fill-opacity="0.2"/>
<defs>
<linearGradient id="paint0_linear" x1="49.5" y1="5" x2="49.5" y2="98" gradientUnits="userSpaceOnUse">
<stop stop-color="#F2AC33"/>
<stop offset="1" stop-color="#FD7634"/>
</linearGradient>
<linearGradient id="paint1_linear" x1="62.5" y1="0" x2="62.5" y2="93" gradientUnits="userSpaceOnUse">
<stop stop-color="#F2AC33"/>
<stop offset="1" stop-color="#FD7634"/>
</linearGradient>
</defs>
</svg>
