<svg width="113" height="106" viewBox="0 0 113 106" fill="none" xmlns="http://www.w3.org/2000/svg">
<path fill-rule="evenodd" clip-rule="evenodd" d="M51.2022 7.68639C62.1 7.74197 75.0724 4.39298 82.7963 12.0066C90.5577 19.6572 84.2789 33.027 87.4425 43.4093C90.4936 53.4224 102.79 60.755 100.779 71.0225C98.7727 81.264 86.5828 85.5472 78.0021 91.5994C69.5172 97.5842 61.6151 105.699 51.2022 105.991C40.6837 106.285 31.6407 99.4566 23.2782 93.1315C15.1056 86.95 7.78837 79.7242 3.97193 70.2675C-0.0363203 60.3355 -1.2623 49.4153 1.45842 39.0644C4.29411 28.2761 9.87624 17.6722 19.3707 11.6831C28.6178 5.85009 40.2386 7.63048 51.2022 7.68639Z" fill="url(#paint0_linear)"/>
<path fill-rule="evenodd" clip-rule="evenodd" d="M63.2022 0.686392C74.1 0.741969 87.0724 -2.60702 94.7963 5.00657C102.558 12.6572 96.2789 26.027 99.4425 36.4093C102.494 46.4224 114.79 53.755 112.779 64.0225C110.773 74.264 98.5828 78.5472 90.0021 84.5994C81.5172 90.5842 73.6151 98.6993 63.2022 98.9908C52.6837 99.2853 43.6407 92.4566 35.2782 86.1315C27.1056 79.95 19.7884 72.7242 15.9719 63.2675C11.9637 53.3355 10.7377 42.4153 13.4584 32.0644C16.2941 21.2761 21.8762 10.6722 31.3707 4.68311C40.6178 -1.14991 52.2386 0.630479 63.2022 0.686392Z" fill="url(#paint1_linear)" fill-opacity="0.2"/>
<defs>
<linearGradient id="paint0_linear" x1="50.5" y1="7" x2="50.5" y2="106" gradientUnits="userSpaceOnUse">
<stop stop-color="#F2AC33"/>
<stop offset="1" stop-color="#FD7634"/>
</linearGradient>
<linearGradient id="paint1_linear" x1="62.5" y1="0" x2="62.5" y2="99" gradientUnits="userSpaceOnUse">
<stop stop-color="#F2AC33"/>
<stop offset="1" stop-color="#FD7634"/>
</linearGradient>
</defs>
</svg>
