<svg width="120" height="98" viewBox="0 0 120 98" fill="none" xmlns="http://www.w3.org/2000/svg">
<path fill-rule="evenodd" clip-rule="evenodd" d="M54.3016 12.8523C65.3797 12.871 76.2078 4.45089 86.444 8.64914C97.3543 13.1239 105.784 23.6573 108.444 35.0583C111.025 46.1203 104.001 56.5639 100.113 67.244C96.3782 77.5059 95.8702 90.7727 86.2409 96.0587C76.6304 101.335 65.0992 94.4031 54.3016 92.3929C45.8326 90.8162 37.9256 89.0239 30.0338 85.5945C19.7726 81.1354 6.26838 79.5515 1.56214 69.4748C-3.15664 59.3712 3.98559 47.9964 7.54161 37.4355C11.0654 26.9703 12.2454 13.7109 22.0797 8.54067C31.8941 3.38088 43.1916 12.8336 54.3016 12.8523Z" fill="url(#paint0_linear)"/>
<path fill-rule="evenodd" clip-rule="evenodd" d="M65.3016 5.85231C76.3797 5.87098 87.2078 -2.54911 97.444 1.64914C108.354 6.12388 116.784 16.6573 119.444 28.0583C122.025 39.1203 115.001 49.5639 111.113 60.244C107.378 70.5059 106.87 83.7727 97.2409 89.0587C87.6304 94.3345 76.0992 87.4031 65.3016 85.3929C56.8326 83.8162 48.9256 82.0239 41.0338 78.5945C30.7726 74.1354 17.2684 72.5515 12.5621 62.4748C7.84336 52.3712 14.9856 40.9964 18.5416 30.4355C22.0654 19.9703 23.2454 6.71087 33.0797 1.54067C42.8941 -3.61912 54.1916 5.83359 65.3016 5.85231Z" fill="url(#paint1_linear)" fill-opacity="0.2"/>
<defs>
<linearGradient id="paint0_linear" x1="54.5" y1="7" x2="54.5" y2="98" gradientUnits="userSpaceOnUse">
<stop stop-color="#F2AC33"/>
<stop offset="1" stop-color="#FD7634"/>
</linearGradient>
<linearGradient id="paint1_linear" x1="65.5" y1="0" x2="65.5" y2="91" gradientUnits="userSpaceOnUse">
<stop stop-color="#F2AC33"/>
<stop offset="1" stop-color="#FD7634"/>
</linearGradient>
</defs>
</svg>
