<svg width="113" height="106" viewBox="0 0 113 106" fill="none" xmlns="http://www.w3.org/2000/svg">
<path fill-rule="evenodd" clip-rule="evenodd" d="M57.338 4.45396C68.9939 3.174 82.2278 -3.94015 91.628 2.98988C101.041 9.92917 96.3892 24.8894 100.026 35.9243C103.666 46.971 114.266 55.9282 112.875 67.4644C111.395 79.7402 103.975 92.4577 92.5923 97.5845C81.5136 102.574 69.5088 92.7938 57.338 92.4777C45.6908 92.1752 32.9832 102.343 23.4047 95.7878C13.8575 89.2538 17.4036 74.4815 14.7254 63.3143C12.3364 53.3528 6.07707 43.9093 8.58045 33.9752C11.158 23.7468 19.0761 15.4649 28.171 9.9582C36.8227 4.71988 47.2538 5.56133 57.338 4.45396Z" fill="url(#paint0_linear)" fill-opacity="0.2"/>
<path fill-rule="evenodd" clip-rule="evenodd" d="M49.338 11.454C60.9939 10.174 74.2278 3.05985 83.628 9.98988C93.0407 16.9292 88.3892 31.8894 92.0257 42.9243C95.666 53.971 106.266 62.9282 104.875 74.4644C103.395 86.7402 95.9754 99.4577 84.5923 104.585C73.5136 109.574 61.5088 99.7938 49.338 99.4777C37.6908 99.1752 24.9832 109.343 15.4047 102.788C5.8575 96.2538 9.40357 81.4815 6.72539 70.3143C4.33635 60.3528 -1.92293 50.9093 0.580451 40.9752C3.158 30.7468 11.0761 22.4649 20.171 16.9582C28.8227 11.7199 39.2538 12.5613 49.338 11.454Z" fill="url(#paint1_linear)"/>
<defs>
<linearGradient id="paint0_linear" x1="60.5" y1="0" x2="60.5" y2="99" gradientUnits="userSpaceOnUse">
<stop stop-color="#F2AC33"/>
<stop offset="1" stop-color="#FD7634"/>
</linearGradient>
<linearGradient id="paint1_linear" x1="52.5" y1="7" x2="52.5" y2="106" gradientUnits="userSpaceOnUse">
<stop stop-color="#F2AC33"/>
<stop offset="1" stop-color="#FD7634"/>
</linearGradient>
</defs>
</svg>
